<svg width="107" height="32" viewBox="0 0 107 32" fill="none" xmlns="http://www.w3.org/2000/svg">
<g clip-path="url(#clip0_57_3986)">
<g clip-path="url(#clip1_57_3986)">
<path d="M14.9221 15.4845L9.88515 30.6957C9.47428 30.7535 9.07559 30.7991 8.69211 30.8265C8.30864 30.857 7.90386 30.8722 7.47169 30.8722C7.07908 30.8722 6.6956 30.857 6.3243 30.8265C5.953 30.7961 5.53909 30.7535 5.08866 30.6957L0 15.4845C0.331737 15.4449 0.715212 15.4053 1.14738 15.3658C1.57955 15.3262 1.95999 15.308 2.29477 15.308C3.04041 15.308 3.82562 15.3658 4.64736 15.4845L7.59038 25.7409L10.4817 15.4845C10.8743 15.4266 11.2517 15.3871 11.6138 15.3658C11.976 15.3475 12.3443 15.3353 12.7156 15.3353C13.0686 15.3353 13.4277 15.3445 13.7899 15.3658C14.1521 15.384 14.5295 15.4236 14.9221 15.4845ZM28.295 19.5292C28.5902 20.421 28.7363 21.3766 28.7363 22.3992C28.7363 22.7705 28.7211 23.1388 28.6907 23.5009C28.6602 23.8631 28.6268 24.1522 28.5872 24.3683H18.8207C18.8999 25.5461 19.3107 26.3983 20.0564 26.9279C20.802 27.4574 21.782 27.7222 22.9994 27.7222C23.6659 27.7222 24.3477 27.6583 25.0446 27.5305C25.7416 27.4026 26.402 27.22 27.0289 26.9857C27.245 27.3783 27.4307 27.85 27.5889 28.3979C27.7441 28.9457 27.8324 29.5361 27.8537 30.1631C26.3229 30.7504 24.5972 31.0457 22.6768 31.0457C21.2646 31.0457 20.0533 30.8509 19.0429 30.4583C18.0325 30.0657 17.2077 29.5209 16.5716 28.8239C15.9325 28.127 15.4638 27.2992 15.1595 26.3374C14.8551 25.3757 14.7029 24.3288 14.7029 23.1905C14.7029 22.0523 14.8612 21.0236 15.1747 20.0436C15.4881 19.0636 15.9538 18.2084 16.5716 17.484C17.1894 16.7597 17.9533 16.1845 18.8664 15.7645C19.7794 15.3414 20.8416 15.1314 22.059 15.1314C23.1181 15.1314 24.0585 15.3171 24.8833 15.6914C25.7081 16.0627 26.4081 16.574 26.9863 17.2223C27.5646 17.8705 27.9998 18.6405 28.295 19.5323V19.5292ZM24.795 21.4557C24.7555 20.5397 24.4968 19.8001 24.0159 19.234C23.535 18.671 22.8624 18.3879 22.0011 18.3879C21.0212 18.3879 20.2755 18.6558 19.7642 19.1914C19.2529 19.727 18.9486 20.4818 18.8512 21.4557H24.795ZM55.6618 15.4845V30.6957C56.3679 30.8144 57.0435 30.8722 57.6918 30.8722C58.34 30.8722 59.0461 30.8144 59.7522 30.6957V15.4845C59.0461 15.3658 58.3705 15.308 57.7222 15.308C57.0739 15.308 56.3679 15.3658 55.6618 15.4845ZM73.7095 21.3096V30.1357C73.0216 30.3518 72.1877 30.5587 71.2077 30.7535C70.2278 30.9483 69.1199 31.0487 67.8843 31.0487C66.883 31.0487 65.9669 30.9604 65.133 30.7839C64.2991 30.6074 63.5839 30.3122 62.9843 29.9013C62.3848 29.4905 61.9252 28.9609 61.6026 28.3126C61.28 27.6644 61.1156 26.87 61.1156 25.9296C61.1156 24.9892 61.3165 24.1979 61.7182 23.5618C62.12 22.9257 62.6404 22.4144 63.2765 22.0309C63.9126 21.6475 64.6248 21.3736 65.41 21.2062C66.1952 21.0388 66.9804 20.9566 67.7626 20.9566C68.3317 20.9566 68.9586 20.987 69.6465 21.0449V20.6918C69.6465 20.2201 69.5673 19.8397 69.4121 19.5444C69.2539 19.2492 69.0408 19.021 68.7639 18.8536C68.4899 18.6862 68.1521 18.5736 67.7504 18.5158C67.3486 18.4579 66.9013 18.4275 66.4113 18.4275C65.3521 18.4275 64.223 18.6344 63.0269 19.0453C62.753 18.534 62.5461 18.0562 62.4091 17.6027C62.2722 17.1523 62.2022 16.6136 62.2022 15.9836C63.0665 15.6884 63.9278 15.4753 64.7921 15.3353C65.6534 15.1984 66.46 15.1284 67.2056 15.1284C69.2447 15.1284 70.8395 15.6184 71.9869 16.5984C73.1343 17.5784 73.7095 19.1488 73.7095 21.3066V21.3096ZM69.6495 23.8083C69.4152 23.7688 69.1595 23.7353 68.8856 23.7079C68.6117 23.6805 68.3652 23.6653 68.1491 23.6653C67.1873 23.6653 66.4265 23.8327 65.8695 24.1705C65.3095 24.5053 65.0295 25.0501 65.0295 25.7987C65.0295 26.2979 65.1361 26.6813 65.3521 26.9522C65.5682 27.22 65.8269 27.4179 66.1313 27.5426C66.4356 27.6674 66.7582 27.7435 67.1021 27.7739C67.446 27.8013 67.7443 27.8166 67.9999 27.8166C68.2952 27.8166 68.5873 27.7922 68.8825 27.7435C69.1778 27.6948 69.4304 27.6522 69.6465 27.6126V23.8114L69.6495 23.8083ZM53.4857 26.9887C53.2361 27.0405 53.1266 27.074 52.8435 27.1226C52.5574 27.1713 52.3018 27.1957 52.0066 27.1957C51.6353 27.1957 51.404 27.1561 51.1301 27.077C50.8562 26.9979 50.6249 26.8487 50.4392 26.6296C50.2536 26.4105 50.1105 26.1153 50.0131 25.7379C49.9157 25.3605 49.867 24.8644 49.867 24.2496V19.164H53.5953C53.6987 18.534 53.7505 17.9101 53.7505 17.3318C53.7505 16.7536 53.6987 16.1175 53.5953 15.4845H49.867V10.6271H48.5523L45.7492 15.4845V25.4822C45.7492 27.3874 46.221 28.7631 47.1614 29.6061C48.1018 30.4491 49.3405 30.8722 51.124 30.8722C52.0857 30.8722 52.9074 30.7626 53.8114 30.5435C53.8296 30.4035 53.8448 30.1052 53.857 29.9591C53.8661 29.81 53.8722 29.5057 53.8722 29.2865C53.8722 28.97 53.8418 28.5713 53.784 28.1666C53.7261 27.7587 53.6257 27.3692 53.4887 26.9918L53.4857 26.9887ZM38.661 15.2197C38.1162 15.2197 37.6171 15.2927 37.1697 15.4388C36.7223 15.5849 36.3176 15.7766 35.9554 16.0079C35.5932 16.2423 35.2767 16.504 35.0058 16.7992C34.7319 17.0914 34.4976 17.3836 34.3028 17.6758C34.2845 17.5388 34.2602 17.3745 34.2298 17.1797C34.1993 16.9849 34.1658 16.784 34.1263 16.5801C34.0867 16.3762 34.0441 16.1814 33.9954 15.9958C33.9467 15.8101 33.8919 15.6701 33.8341 15.5727C33.5602 15.5149 33.2985 15.4693 33.0428 15.4419C32.7902 15.4114 32.498 15.3993 32.1663 15.3993C31.8346 15.3993 31.5333 15.4145 31.2593 15.4419C30.9854 15.4723 30.7115 15.5149 30.4406 15.5727V30.6987C31.1437 30.8144 31.8346 30.8752 32.5193 30.8752C33.2041 30.8752 33.895 30.8174 34.598 30.6987V22.7705C34.598 21.9518 34.6863 21.2883 34.8597 20.7801C35.0363 20.2718 35.2645 19.8792 35.5476 19.5962C35.8306 19.3131 36.1471 19.1244 36.4971 19.0271C36.8471 18.9297 37.188 18.881 37.5197 18.881C38.3202 18.881 38.8802 19.164 39.2028 19.7301C39.5254 20.2962 39.6867 21.1057 39.6867 22.1588V30.7018C40.3897 30.8174 41.0806 30.8783 41.7654 30.8783C42.4501 30.8783 43.141 30.8204 43.841 30.7018V21.0479C43.841 19.0392 43.4058 17.5662 42.5384 16.6319C41.671 15.6945 40.3775 15.2288 38.661 15.2288V15.2197ZM88.4702 30.9878C88.0868 30.9878 87.7337 30.7839 87.542 30.4522L70.876 1.60022C70.6843 1.26544 70.6843 0.857619 70.876 0.522839C71.0678 0.194146 71.4208 -0.00976562 71.8043 -0.00976562H71.8134C72.209 -0.00672217 81.3242 0.12719 88.4702 5.09715C95.6163 0.12719 104.728 -0.00672217 105.127 -0.00976562H105.136C105.517 -0.00976562 105.87 0.194146 106.064 0.522839C106.259 0.854576 106.259 1.26544 106.064 1.60022L89.3985 30.4522C89.2067 30.7839 88.8537 30.9878 88.4702 30.9878ZM86.2059 23.8509L88.4702 27.7709L90.7346 23.8509C90.0437 24.1127 89.2859 24.2648 88.4733 24.2648H88.4702C87.6576 24.2648 86.8998 24.1127 86.2089 23.8509H86.2059ZM88.4702 7.7754C84.3677 11.0502 82.6907 14.4162 83.482 17.7884C83.8016 19.1457 85.4998 22.1192 88.4702 22.1192C91.4376 22.1192 93.1389 19.1457 93.4554 17.7884C94.2498 14.4162 92.5728 11.0502 88.4672 7.7754H88.4702ZM73.7399 2.26978L81.2025 15.1893C81.5372 12.1854 83.3877 9.23017 86.6716 6.47584C82.0668 3.50238 76.5916 2.565 73.7399 2.26978ZM90.2659 6.47584C93.5528 9.23017 95.4002 12.1854 95.735 15.1893L103.198 2.26978C100.346 2.565 94.8706 3.50238 90.2659 6.47584Z" fill="#004127"/>
</g>
</g>
<defs>
<clipPath id="clip0_57_3986">
<rect width="107" height="32" fill="white"/>
</clipPath>
<clipPath id="clip1_57_3986">
<rect width="106.207" height="31.0585" fill="white" transform="translate(0 -0.00976562)"/>
</clipPath>
</defs>
</svg>
